<?xml version="1.0" encoding="utf-8"?>
<svg xmlns="http://www.w3.org/2000/svg" viewBox="437.902 256.176 82.8778 21.463" width="82.8778px" height="21.463px"><linearGradient id="a" gradientUnits="objectBoundingBox" x1=".536" x2=".011" y1=".026" y2="1"><stop offset="0" stop-color="#03d1cf" stop-opacity=".988"/><stop offset="1" stop-color="#4e09f8"/></linearGradient><g id="object-3" transform="matrix(1, 0, 0, 1, 5.684341886080802e-14, 0)"><path d="M 467.417 277.638 L 452.682 256.176 L 437.902 277.638 L 458.494 277.638 L 452.682 269.447 L 449.799 273.703 L 446.735 273.703 L 452.684 265.146 L 461.284 277.639 L 467.417 277.638 Z" fill="url(#a)" id="object-1"/><path d="M 479.76 266.763 C 479.592 266.763 479.52 266.835 479.52 267.003 L 479.52 268.443 C 479.52 268.611 479.592 268.683 479.76 268.683 L 484.536 268.683 L 484.536 271.207 C 483.476 272.831 481.623 273.757 479.688 273.627 C 476.112 273.627 473.904 271.327 473.904 266.907 C 473.904 262.515 476.496 260.187 479.448 260.187 C 481.748 260.187 483.624 261.099 484.224 263.307 C 484.245 263.449 484.369 263.552 484.512 263.547 L 486.044 263.547 C 486.212 263.547 486.308 263.475 486.308 263.307 C 485.66 259.947 482.78 258.267 479.444 258.267 C 475.7 258.267 471.788 261.147 471.788 266.907 C 471.788 272.595 475.488 275.547 479.78 275.547 C 482.413 275.627 484.894 274.314 486.308 272.091 C 486.48 271.819 486.563 271.501 486.548 271.179 L 486.548 267.007 C 486.548 266.839 486.476 266.767 486.308 266.767 L 479.76 266.763 Z M 504.672 258.747 C 504.672 258.579 504.6 258.507 504.432 258.507 L 502.152 258.507 C 501.984 258.49 501.826 258.589 501.768 258.747 L 497.112 269.427 L 492.456 258.747 C 492.397 258.589 492.24 258.49 492.072 258.507 L 489.792 258.507 C 489.624 258.507 489.552 258.579 489.552 258.747 L 489.552 275.067 C 489.552 275.235 489.624 275.307 489.792 275.307 L 491.328 275.307 C 491.496 275.307 491.568 275.235 491.568 275.067 L 491.568 261.651 L 496.268 272.283 C 496.316 272.414 496.441 272.5 496.58 272.499 L 497.644 272.499 C 497.783 272.5 497.908 272.414 497.956 272.283 L 502.656 261.651 L 502.656 275.067 C 502.656 275.235 502.728 275.307 502.896 275.307 L 504.432 275.307 C 504.6 275.307 504.672 275.235 504.672 275.067 L 504.672 258.747 Z M 509.904 258.747 C 509.736 258.531 509.736 258.507 509.568 258.507 L 507.72 258.507 C 507.552 258.507 507.48 258.627 507.552 258.747 L 512.64 266.447 L 506.928 275.067 C 506.856 275.187 506.928 275.307 507.096 275.307 L 508.896 275.307 C 509.064 275.307 509.112 275.283 509.28 275.067 L 513.844 268.207 L 518.4 275.067 C 518.568 275.283 518.616 275.307 518.784 275.307 L 520.584 275.307 C 520.752 275.307 520.824 275.187 520.752 275.067 L 515.044 266.451 L 520.132 258.751 C 520.204 258.631 520.132 258.511 519.964 258.511 L 518.112 258.511 C 517.944 258.511 517.944 258.535 517.776 258.751 L 513.844 264.675 L 509.904 258.747 Z" fill="#fff" id="object-2"/></g></svg>