<?xml version="1.0" encoding="utf-8"?>
<svg xmlns="http://www.w3.org/2000/svg" viewBox="759.2136 145.6704 45.7513 25.5378" width="45.7513px" height="25.5378px"><defs><linearGradient gradientUnits="userSpaceOnUse" x1="607.57" y1="170.555" x2="607.57" y2="194.535" id="gradient-20" gradientTransform="matrix(0.802782, 0.596272, -0.997695, 1.343232, 289.985299, -420.81706)"><stop offset="0" style="stop-color: rgb(100% 29.412% 5.4902%)"/><stop offset="1" style="stop-color: rgb(69.079% 0% 0%)"/></linearGradient><linearGradient gradientUnits="userSpaceOnUse" x1="586.258" y1="172.385" x2="586.258" y2="196.365" id="gradient-27" gradientTransform="matrix(-0.838699, -0.544595, 0.753858, -1.160971, 954.158356, 713.92037)"><stop offset="0" style="stop-color: rgb(100% 29.412% 5.4902%)"/><stop offset="1" style="stop-color: rgb(69.079% 0% 0%)"/></linearGradient><linearGradient gradientUnits="userSpaceOnUse" x1="600.462" y1="173.023" x2="600.462" y2="190.549" id="gradient-28" gradientTransform="matrix(0.769626, 0.638496, -1.326798, 1.599288, 367.897612, -487.082898)"><stop offset="0" style="stop-color: rgb(100% 29.412% 5.4902%)"/><stop offset="1" style="stop-color: rgb(69.079% 0% 0%)"/></linearGradient></defs><g transform="matrix(1, 0, 0, 1, 182.06163024902344, -23.32659912109375)" id="object-9"><path d="M 619.542 177.464 L 606.728 170.555 C 619.658 183.018 602.082 201.402 592.236 191.912 L 622.903 191.563 C 622.963 191.729 613.757 185.272 613.488 184.529 L 604.133 186.836 L 601.069 187.977 L 619.461 180.87 L 608.35 180.502 C 622.362 188.964 595.767 173.527 619.542 177.464 Z" id="path-2" style="fill: url(&quot;#gradient-20&quot;);"/><path d="M 604.458 175.906 L 591.644 168.997 C 604.574 181.46 586.998 199.844 577.152 190.354 L 607.819 190.005 C 607.879 190.171 598.673 183.714 598.404 182.971 L 589.049 185.278 L 585.985 186.419 L 604.377 179.312 L 593.266 178.944 C 607.278 187.406 580.683 171.969 604.458 175.906 Z" id="path-9" style="transform-box: fill-box; transform-origin: 50% 50%; fill: url(&quot;#gradient-27&quot;);" transform="matrix(-1, 0, 0, -1, 0.000059, 0.000016)"/><path d="M 610.337 176.929 L 603.93 173.023 L 589.878 190.549 L 594.949 189.927 C 594.985 190.022 597.526 186.642 597.366 186.218 L 596.961 187.654 L 595.137 188.305 C 599.647 177.497 613.694 184.264 613.417 182.679 C 595.061 183.353 588.076 182.799 587.503 182.734 C 596.058 188.155 596.182 174.683 610.337 176.929 Z" id="path-10" style="fill: url(&quot;#gradient-28&quot;);"/></g></svg>