<?xml version="1.0" encoding="utf-8"?>
<svg xmlns="http://www.w3.org/2000/svg" viewBox="441.232 256.4303 77.92 21.5887" width="77.92px" height="21.5887px"><defs><linearGradient gradientUnits="userSpaceOnUse" x1="451.998" y1="0.925" x2="451.998" y2="503.376" id="gradient-2" spreadMethod="pad" gradientTransform="matrix(0.15225, 0, 0, 0.042967, 411.375214, 256.390196)"><stop offset="0" style="stop-color: rgb(94.51% 37.647% 32.157%)"/><stop offset="1" style="stop-color: rgb(65.232% 7.9561% 10.953%)"/></linearGradient></defs><path d="M 441.232 260.395 L 441.502 260.455 C 444.361 261.087 447.719 261.577 451.317 261.753 C 453.043 261.837 454.784 261.843 456.527 261.803 C 463.266 261.655 469.469 260.771 475.231 259.827 C 480.055 259.036 484.669 258.147 489.718 257.469 C 493.472 256.964 497.263 256.604 501.405 256.471 C 507.788 256.264 514.074 256.859 519.076 257.969 L 519.068 261.243 C 518.225 261.081 517.43 260.901 516.561 260.749 C 513.284 260.175 509.603 259.821 505.768 259.699 C 504.757 259.667 503.727 259.667 502.711 259.66 L 502.691 262.854 L 502.707 265.995 L 502.706 269.022 C 506.926 268.948 511.297 269.233 515.013 269.802 C 516.476 270.026 517.827 270.299 519.152 270.581 L 519.137 273.781 C 517.645 273.523 516.139 273.28 514.514 273.092 C 509.285 272.49 503.811 272.481 498.382 272.853 C 485.083 273.763 475.315 276.9 462.004 277.798 C 460.114 277.925 458.134 278.021 456.182 278.019 C 451.815 278.013 447.575 277.593 443.869 276.956 L 441.261 276.487 L 441.241 273.105 C 445.051 273.899 449.817 274.461 454.546 274.569 C 455.572 274.591 456.702 274.605 457.724 274.565 L 457.7 271.475 L 457.689 268.313 C 457.654 268.191 457.542 267.831 457.754 267.74 L 457.781 265.168 C 455.343 265.308 452.651 265.188 450.276 265.015 C 448.715 264.901 447.188 264.762 445.753 264.551 C 444.166 264.317 442.763 264.011 441.266 263.738 L 441.232 260.395 Z" style="fill: url(&quot;#gradient-2&quot;); paint-order: fill;" id="object-3" transform="matrix(0.9999999999999999, 0, 0, 0.9999999999999999, 0, 0)"/></svg>