<?xml version="1.0" encoding="utf-8" ?>
<svg xmlns="http://www.w3.org/2000/svg" xmlns:xlink="http://www.w3.org/1999/xlink" width="1024" height="1024">
	<defs>
		<linearGradient id="gradient_0" gradientUnits="userSpaceOnUse" x1="1076.4661" y1="956.20178" x2="-52.966091" y2="67.298195">
			<stop offset="0" stop-color="#EE373D"/>
			<stop offset="1" stop-color="#F58C6B"/>
		</linearGradient>
	</defs>
	<path fill="url(#gradient_0)" d="M0 0L1024 0L1024 1024L0 1024L0 0Z"/>
	<path fill="#FEFEFE" d="M256.023 505.152C287.54 528.264 324.443 542.587 363.898 539.49L363.972 613.103C347.769 613.642 331.236 612.677 315.5 608.545C294.307 602.98 274.627 591.78 256.363 579.95L256.023 505.152Z"/>
	<path fill="#FEFEFE" d="M659.48 412.428C692.024 411.141 724.699 419.294 752.169 437.019C757.459 440.432 762.84 443.913 767.508 448.157L767.026 522.911C762.053 519.046 757.123 515.126 751.783 511.77C724.064 494.354 692.255 485.495 659.579 485.529L659.48 412.428Z"/>
	<path fill="#FEFEFE" d="M255.801 355.201L257.582 356.616C276.358 371.322 298.41 382.709 322.039 386.809C333.38 388.777 344.819 388.886 356.263 387.993C400.527 384.539 441.271 363.946 479.117 341.983C510.797 323.599 541.107 302.884 574.262 287.098C598.919 275.359 623.822 267.001 651.033 263.873C692.954 259.053 734.237 272.899 767.091 298.727L767.04 374.948C761.503 371.167 756.279 367.007 750.573 363.459C729.051 350.075 704.874 341.835 679.684 339.021C673.043 338.279 666.279 338.28 659.603 338.096L659.48 412.428L659.579 485.529L659.576 555.994C687.294 554.27 715.997 560.9 740.408 574.149C750.016 579.364 758.887 585.708 767.593 592.286L767.493 666.761C757.69 660.76 747.8 655.102 737.133 650.739C702.787 636.693 666.836 636.489 631.169 645.14C543.817 666.326 479.664 739.326 392.239 760.246C379.822 763.217 366.817 765.437 354 765.375C325.32 765.236 297.468 755.454 273.122 740.65L255.993 729.744L255.86 651.042C280.886 669.474 312.19 682.588 343.25 685.075C349.992 685.615 357.411 685.925 364.13 684.997L363.972 613.103L363.898 539.49C363.664 536.647 362.93 528.254 364.319 526.142L364.503 466.304C348.484 469.535 330.805 466.777 315.206 462.743C304.95 460.091 294.926 456.854 285.5 451.923C275.075 446.468 265.863 439.374 256.026 433.013L255.801 355.201Z"/>
	<path fill="#F66657" d="M558.321 374.42C558.749 376.692 558.49 379.403 558.492 381.73C558.495 386.254 558.497 390.779 558.499 395.303C558.507 412.525 558.432 429.749 558.633 446.97L463.035 506.786L462.552 432.728L558.321 374.42Z"/>
	<path fill="#F66657" d="M659.48 412.428L659.579 485.529C651.606 485.384 643.287 486.632 635.459 488.078C607.437 493.256 583.473 505.255 559.122 519.459L559.004 447.017C569.826 441.05 580.498 434.846 591.75 429.699C613.484 419.758 635.725 414.389 659.48 412.428Z"/>
	<path fill="#F66657" d="M364.409 539.269C374.315 538.42 384.22 537.16 393.891 534.799C417.743 528.976 441.429 517.865 463.21 506.594L463.546 579.814L559.204 519.436L559.491 590.417L463.417 650.836L463.463 580.193C460.72 580.672 457.545 582.896 455.024 584.222C450.327 586.69 445.568 589.065 440.771 591.332C426.675 597.993 411.852 603.17 396.824 607.254C386.367 610.096 374.846 612.68 363.972 613.103L363.898 539.49C363.664 536.647 362.93 528.254 364.319 526.142L364.409 539.269Z"/>
</svg>
