<?xml version="1.0" encoding="utf-8"?>
<svg xmlns="http://www.w3.org/2000/svg" viewBox="529.8052 170.7398 71.4506 29.1605" width="71.4506px" height="29.1605px" xmlns:bx="https://boxy-svg.com"><defs><linearGradient gradientUnits="userSpaceOnUse" x1="250.299" y1="243.152" x2="250.299" y2="351.24" id="gradient-5"><stop offset="0" style="stop-color: rgb(94.902% 38.824% 32.941%)"/><stop offset="1" style="stop-color: rgb(65.341% 9.7545% 11.403%)"/></linearGradient><linearGradient gradientUnits="userSpaceOnUse" x1="653.795" y1="150.296" x2="653.795" y2="260.911" id="gradient-6"><stop offset="0" style="stop-color: rgb(94.902% 38.824% 32.941%)"/><stop offset="1" style="stop-color: rgb(65.341% 9.7545% 11.403%)"/></linearGradient><linearGradient gradientUnits="userSpaceOnUse" x1="451.998" y1="0.925" x2="451.998" y2="503.376" id="gradient-7"><stop offset="0" style="stop-color: rgb(94.902% 38.824% 32.941%)"/><stop offset="1" style="stop-color: rgb(65.341% 9.7545% 11.403%)"/></linearGradient><linearGradient gradientUnits="userSpaceOnUse" x1="450.893" y1="112.42" x2="450.893" y2="244.786" id="gradient-8"><stop offset="0" style="stop-color: rgb(94.902% 38.824% 32.941%)"/><stop offset="1" style="stop-color: rgb(65.341% 9.7545% 11.403%)"/></linearGradient><linearGradient gradientUnits="userSpaceOnUse" x1="549.592" y1="150.428" x2="549.592" y2="257.459" id="gradient-9"><stop offset="0" style="stop-color: rgb(94.902% 38.824% 32.941%)"/><stop offset="1" style="stop-color: rgb(65.341% 9.7545% 11.403%)"/></linearGradient><linearGradient gradientUnits="userSpaceOnUse" x1="401.794" y1="244.594" x2="401.794" y2="388.836" id="gradient-10"><stop offset="0" style="stop-color: rgb(94.902% 38.824% 32.941%)"/><stop offset="1" style="stop-color: rgb(65.341% 9.7545% 11.403%)"/></linearGradient><style bx:fonts="Racing Sans One">@import url(https://fonts.googleapis.com/css2?family=Racing+Sans+One%3Aital%2Cwght%400%2C400&amp;display=swap);</style></defs><g id="object-8" transform="matrix(0.9999999999999999, 0, 0, 0.9999999999999999, 0, 2.842170943040401e-14)"><g transform="matrix(0.052338, 0, 0, 0.041474, 519.541626, 177.299042)" style="" id="g-2"><g><path d="M 196.324 243.152 C 227.841 266.264 264.744 280.587 304.199 277.49 L 304.273 351.103 C 288.07 351.642 271.537 350.677 255.801 346.545 C 234.608 340.98 214.928 329.78 196.664 317.95 L 196.324 243.152 Z" style="fill: url(&quot;#gradient-5&quot;);"/><path d="M 599.781 150.428 C 632.325 149.141 665 157.294 692.47 175.019 C 697.76 178.432 703.141 181.913 707.809 186.157 L 707.327 260.911 C 702.354 257.046 697.424 253.126 692.084 249.77 C 664.365 232.354 632.556 223.495 599.88 223.529 L 599.781 150.428 Z" style="fill: url(&quot;#gradient-6&quot;);"/><path d="M 196.102 93.201 L 197.883 94.616 C 216.659 109.322 238.711 120.709 262.34 124.809 C 273.681 126.777 285.12 126.886 296.564 125.993 C 340.828 122.539 381.572 101.946 419.418 79.983 C 451.098 61.599 481.408 40.884 514.563 25.098 C 539.22 13.359 564.123 5.001 591.334 1.873 C 633.255 -2.947 674.538 10.899 707.392 36.727 L 707.341 112.948 C 701.804 109.167 696.58 105.007 690.874 101.459 C 669.352 88.075 645.175 79.835 619.985 77.021 C 613.344 76.279 606.58 76.28 599.904 76.096 L 599.781 150.428 L 599.88 223.529 L 599.877 293.994 C 627.595 292.27 656.298 298.9 680.709 312.149 C 690.317 317.364 699.188 323.708 707.894 330.286 L 707.794 404.761 C 697.991 398.76 688.101 393.102 677.434 388.739 C 643.088 374.693 607.137 374.489 571.47 383.14 C 484.118 404.326 419.965 477.326 332.54 498.246 C 320.123 501.217 307.118 503.437 294.301 503.375 C 265.621 503.236 237.769 493.454 213.423 478.65 L 196.294 467.744 L 196.161 389.042 C 221.187 407.474 252.491 420.588 283.551 423.075 C 290.293 423.615 297.712 423.925 304.431 422.997 L 304.273 351.103 L 304.199 277.49 C 303.965 274.647 303.231 266.254 304.62 264.142 L 304.804 204.304 C 288.785 207.535 271.106 204.777 255.507 200.743 C 245.251 198.091 235.227 194.854 225.801 189.923 C 215.376 184.468 206.164 177.374 196.327 171.013 L 196.102 93.201 Z" style="fill: url(&quot;#gradient-7&quot;);"/></g><g style=""><path d="M 498.622 112.42 C 499.05 114.692 498.791 117.403 498.793 119.73 C 498.796 124.254 498.798 128.779 498.8 133.303 C 498.808 150.525 498.733 167.749 498.934 184.97 L 403.336 244.786 L 402.853 170.728 L 498.622 112.42 Z" style="paint-order: fill; fill: url(&quot;#gradient-8&quot;);"/><path d="M 599.781 150.428 L 599.88 223.529 C 591.907 223.384 583.588 224.632 575.76 226.078 C 547.738 231.256 523.774 243.255 499.423 257.459 L 499.305 185.017 C 510.127 179.05 520.799 172.846 532.051 167.699 C 553.785 157.758 576.026 152.389 599.781 150.428 Z" style="paint-order: fill; fill: url(&quot;#gradient-9&quot;);"/><path d="M 304.71 277.269 C 314.616 276.42 324.521 275.16 334.192 272.799 C 358.044 266.976 381.73 255.865 403.511 244.594 L 403.847 317.814 L 499.505 257.436 L 499.792 328.417 L 403.718 388.836 L 403.764 318.193 C 401.021 318.672 397.846 320.896 395.325 322.222 C 390.628 324.69 385.869 327.065 381.072 329.332 C 366.976 335.993 352.153 341.17 337.125 345.254 C 326.668 348.096 315.147 350.68 304.273 351.103 L 304.199 277.49 C 303.965 274.647 303.231 266.254 304.62 264.142 L 304.71 277.269 Z" style="paint-order: fill; fill: url(&quot;#gradient-10&quot;);"/></g></g><text style="fill: rgb(255, 255, 255); font-family: &quot;Racing Sans One&quot;; font-size: 28px; text-transform: capitalize; white-space: pre; text-anchor: middle;" id="text-4" transform="matrix(1.028329, 0, 0, 0.822968, 409.323425, -17.113873)" y="255.644" x="164.739">WF</text></g></svg>