<svg version="1.1" xmlns="http://www.w3.org/2000/svg" xmlns:xlink="http://www.w3.org/1999/xlink" width="400" height="100" viewBox="665,432,400,100"><defs><linearGradient x1="1085.49457" y1="525.37908" x2="644.31012" y2="438.57209" gradientUnits="userSpaceOnUse" id="color-1"><stop offset="0" stop-color="#ee373d"/><stop offset="1" stop-color="#f58c6b"/></linearGradient></defs><g fill="none" fill-rule="nonzero" stroke="none" stroke-width="1" stroke-linecap="butt" stroke-linejoin="miter" stroke-miterlimit="10" stroke-dasharray="" stroke-dashoffset="0" font-family="none" font-weight="none" font-size="none" text-anchor="none" style="mix-blend-mode: normal"><g><g id="Group 1"><path d="M665,432h400v100h-400z" id="Path 1" fill="url(#color-1)"/><path d="M765.00898,481.33125c12.31133,2.25703 26.72656,3.65576 42.13867,3.35332l0.02891,7.18877c-6.3293,0.05264 -12.7875,-0.0416 -18.93438,-0.44512c-8.27852,-0.54346 -15.96602,-1.63721 -23.10039,-2.79248z" id="Path 1" fill="#fefefe"/><path d="M922.60937,472.27617c12.7125,-0.12568 25.47617,0.67051 36.20664,2.40146c2.06641,0.3333 4.16836,0.67324 5.9918,1.0877l-0.18828,7.3002c-1.94258,-0.37744 -3.86836,-0.76025 -5.9543,-1.08799c-10.82773,-1.70078 -23.25312,-2.56592 -36.01719,-2.5626z" id="Path 1" fill="#fefefe"/><path d="M764.92227,466.6876l0.6957,0.13818c7.33437,1.43613 15.94844,2.54814 25.17852,2.94854c4.43008,0.19219 8.89844,0.20283 13.36875,0.11562c17.29063,-0.3373 33.20625,-2.34834 47.98984,-4.49316c12.375,-1.79531 24.21484,-3.81826 37.16602,-5.35986c9.63164,-1.14639 19.35938,-1.9626 29.98867,-2.26807c16.37539,-0.4707 32.50156,0.88145 45.33516,3.40371l-0.01992,7.44346c-2.16289,-0.36924 -4.20352,-0.77549 -6.43242,-1.12197c-8.40703,-1.30703 -17.85117,-2.11172 -27.69102,-2.38652c-2.59414,-0.07246 -5.23633,-0.07236 -7.84414,-0.09033l-0.04805,7.25898l0.03867,7.13877l-0.00117,6.88135c10.82734,-0.16836 22.03945,0.4791 31.575,1.77295c3.75313,0.50928 7.21836,1.12881 10.61914,1.77119l-0.03906,7.27295c-3.8293,-0.58604 -7.69258,-1.13857 -11.85937,-1.56465c-13.41641,-1.37168 -27.45977,-1.3916 -41.39219,-0.54678c-34.12187,2.06895 -59.18164,9.19785 -93.33203,11.24082c-4.85039,0.29014 -9.93047,0.50693 -14.93711,0.50088c-11.20312,-0.01357 -22.08281,-0.96885 -31.59297,-2.41455l-6.69102,-1.06504l-0.05195,-7.68574c9.77578,1.8 22.00391,3.08066 34.13672,3.32354c2.63359,0.05273 5.53164,0.08301 8.15625,-0.00762l-0.06172,-7.0209l-0.02891,-7.18877c-0.09141,-0.27764 -0.37812,-1.09727 0.16445,-1.30352l0.07187,-5.84355c-6.25742,0.31553 -13.16328,0.04619 -19.25664,-0.34775c-4.00625,-0.25898 -7.92187,-0.5751 -11.60391,-1.05664c-4.07227,-0.53271 -7.6707,-1.22549 -11.51328,-1.84668z" id="Path 1" fill="#fefefe"/><path d="M883.09414,468.56445c0.16719,0.22187 0.06602,0.48662 0.0668,0.71387c0.00117,0.4418 0.00195,0.88369 0.00273,1.32549c0.00313,1.68184 -0.02617,3.36387 0.05234,5.04561l-37.34297,5.84141l-0.18867,-7.23223z" id="Path 1" fill="#f66657"/><path d="M922.60937,472.27617l0.03867,7.13877c-3.11445,-0.01416 -6.36406,0.10771 -9.42187,0.24893c-10.94609,0.50566 -20.30703,1.67744 -29.81914,3.06455l-0.04609,-7.07441c4.22734,-0.58271 8.39609,-1.18857 12.79141,-1.69121c8.48984,-0.9708 17.17773,-1.49512 26.45703,-1.68662z" id="Path 1" fill="#f66657"/><path d="M807.34727,484.66299c3.86953,-0.08291 7.73867,-0.20596 11.51641,-0.43652c9.31719,-0.56865 18.56953,-1.65371 27.07773,-2.75439l0.13125,7.15039l37.36641,-5.89629l0.11211,6.93174l-37.52891,5.90029l0.01797,-6.89873c-1.07148,0.04678 -2.31172,0.26396 -3.29648,0.39346c-1.83477,0.24102 -3.69375,0.47295 -5.56758,0.69434c-5.50625,0.65049 -11.29648,1.15605 -17.1668,1.55488c-4.08477,0.27754 -8.58516,0.52988 -12.83281,0.57119l-0.02891,-7.18877c-0.09141,-0.27764 -0.37812,-1.09727 0.16445,-1.30352z" id="Path 1" fill="#f66657"/></g></g></g></svg>