<svg version="1.1" xmlns="http://www.w3.org/2000/svg" xmlns:xlink="http://www.w3.org/1999/xlink" width="250" height="250" viewBox="739,357,250,250"><defs><linearGradient x1="1001.80911" y1="590.4477" x2="726.06883" y2="373.43022" gradientUnits="userSpaceOnUse" id="color-1"><stop offset="0" stop-color="#ee373d"/><stop offset="1" stop-color="#f58c6b"/></linearGradient></defs><g fill="none" fill-rule="nonzero" stroke="none" stroke-width="1" stroke-linecap="butt" stroke-linejoin="miter" stroke-miterlimit="10" stroke-dasharray="" stroke-dashoffset="0" font-family="none" font-weight="none" font-size="none" text-anchor="none" style="mix-blend-mode: normal"><g><g id="Group 1"><path d="M739,357h250v250h-250z" id="Path 1" fill="url(#color-1)"/><path d="M801.50562,480.32813c7.69458,5.64258 16.7041,9.1394 26.33667,8.3833l0.01807,17.97192c-3.95581,0.13159 -7.99219,-0.104 -11.83398,-1.11279c-5.17407,-1.35864 -9.97876,-4.09302 -14.43774,-6.9812z" id="Path 1" fill="#fefefe"/><path d="M900.00586,457.69043c7.94531,-0.31421 15.92261,1.67627 22.62915,6.00366c1.2915,0.83325 2.60522,1.68311 3.74487,2.71924l-0.11768,18.25049c-1.21411,-0.9436 -2.41772,-1.90063 -3.72144,-2.71997c-6.76733,-4.25195 -14.5332,-6.41479 -22.51074,-6.40649z" id="Path 1" fill="#fefefe"/><path d="M801.45142,443.71899l0.43481,0.34546c4.58398,3.59033 9.96777,6.37036 15.73657,7.37134c2.7688,0.48047 5.56152,0.50708 8.35547,0.28906c10.80664,-0.84326 20.75391,-5.87085 29.99365,-11.23291c7.73438,-4.48828 15.13428,-9.54565 23.22876,-13.39966c6.01978,-2.86597 12.09961,-4.90649 18.74292,-5.67017c10.23462,-1.17676 20.31348,2.20361 28.33447,8.50928l-0.01245,18.60864c-1.35181,-0.9231 -2.6272,-1.93872 -4.02026,-2.80493c-5.25439,-3.26758 -11.15698,-5.2793 -17.30688,-5.96631c-1.62134,-0.18115 -3.27271,-0.18091 -4.90259,-0.22583l-0.03003,18.14746l0.02417,17.84692l-0.00073,17.20337c6.76709,-0.4209 13.77466,1.19775 19.73438,4.43237c2.3457,1.27319 4.51147,2.82202 6.63696,4.42798l-0.02441,18.18237c-2.39331,-1.46509 -4.80786,-2.84644 -7.41211,-3.91162c-8.38525,-3.4292 -17.16235,-3.479 -25.87012,-1.36694c-21.32617,5.17236 -36.98853,22.99463 -58.33252,28.10205c-3.03149,0.72534 -6.20654,1.26733 -9.33569,1.2522c-7.00195,-0.03394 -13.80176,-2.42212 -19.74561,-6.03638l-4.18188,-2.6626l-0.03247,-19.21436c6.10986,4.5 13.75244,7.70166 21.33545,8.30884c1.646,0.13184 3.45728,0.20752 5.09766,-0.01904l-0.03857,-17.55225l-0.01807,-17.97192c-0.05713,-0.69409 -0.23633,-2.74316 0.10278,-3.25879l0.04492,-14.60889c-3.91089,0.78882 -8.22705,0.11548 -12.0354,-0.86938c-2.50391,-0.64746 -4.95117,-1.43774 -7.25244,-2.6416c-2.54517,-1.33179 -4.79419,-3.06372 -7.1958,-4.6167z" id="Path 1" fill="#fefefe"/><path d="M875.30884,448.41113c0.10449,0.55469 0.04126,1.21655 0.04175,1.78467c0.00073,1.10449 0.00122,2.20923 0.00171,3.31372c0.00195,4.20459 -0.01636,8.40967 0.03271,12.61401l-23.33936,14.60352l-0.11792,-18.08057z" id="Path 1" fill="#f66657"/><path d="M900.00586,457.69043l0.02417,17.84692c-1.94653,-0.0354 -3.97754,0.26929 -5.88867,0.62231c-6.84131,1.26416 -12.69189,4.1936 -18.63696,7.66138l-0.02881,-17.68604c2.64209,-1.45679 5.24756,-2.97144 7.99463,-4.22803c5.30615,-2.427 10.73608,-3.73779 16.53564,-4.21655z" id="Path 1" fill="#f66657"/><path d="M827.96704,488.65747c2.41846,-0.20728 4.83667,-0.51489 7.19775,-1.09131c5.82324,-1.42163 11.60596,-4.13428 16.92358,-6.88599l0.08203,17.87598l23.354,-14.74072l0.07007,17.32935l-23.45557,14.75073l0.01123,-17.24683c-0.66968,0.11694 -1.44482,0.65991 -2.0603,0.98364c-1.14673,0.60254 -2.30859,1.18237 -3.47974,1.73584c-3.44141,1.62622 -7.0603,2.89014 -10.72925,3.88721c-2.55298,0.69385 -5.36572,1.32471 -8.02051,1.42798l-0.01807,-17.97192c-0.05713,-0.69409 -0.23633,-2.74316 0.10278,-3.25879z" id="Path 1" fill="#f66657"/></g></g></g></svg>